<svg width="310" height="56" viewBox="0 0 310 56" fill="none" xmlns="http://www.w3.org/2000/svg">
<g filter="url(#filter0_d_1108_1579)">
<path d="M24.6875 11.0625L16.2188 47H4.71875L18.75 1.5H25.9375L24.6875 11.0625ZM31.3125 47L22.8438 11.0625L21.4375 1.5H28.75L42.8125 47H31.3125ZM31.6562 30.0312V38.5H11.9375V30.0312H31.6562ZM72.3125 38.5625V47H53.1875V38.5625H72.3125ZM56.9375 1.5V47H46.25V1.5H56.9375ZM103 38.5625V47H83.875V38.5625H103ZM87.625 1.5V47H76.9375V1.5H87.625ZM107.656 1.5H123.219C126.26 1.5 128.896 2.02083 131.125 3.0625C133.354 4.10417 135.062 5.64583 136.25 7.6875C137.458 9.72917 138.062 12.25 138.062 15.25C138.062 17.8542 137.729 20.0312 137.062 21.7812C136.417 23.5312 135.5 24.9792 134.312 26.125C133.125 27.25 131.729 28.1771 130.125 28.9062L126.656 30.9375H114.438L114.375 22.4688H122.969C123.948 22.4688 124.76 22.2188 125.406 21.7188C126.052 21.2188 126.531 20.5104 126.844 19.5938C127.177 18.6562 127.344 17.5417 127.344 16.25C127.344 14.9375 127.188 13.8125 126.875 12.875C126.562 11.9375 126.104 11.2188 125.5 10.7188C124.917 10.2188 124.156 9.96875 123.219 9.96875H118.344V47H107.656V1.5ZM127.812 47L119.75 26.875L131.062 26.8125L139.281 46.5312V47H127.812ZM164 1.5H174.719V32.4688C174.719 36.0104 174.083 38.9062 172.812 41.1562C171.542 43.3854 169.76 45.0208 167.469 46.0625C165.177 47.1042 162.469 47.625 159.344 47.625C156.24 47.625 153.531 47.1042 151.219 46.0625C148.906 45.0208 147.094 43.3854 145.781 41.1562C144.49 38.9062 143.844 36.0104 143.844 32.4688V1.5H154.594V32.4688C154.594 34.3438 154.76 35.7708 155.094 36.75C155.448 37.7083 155.979 38.3542 156.688 38.6875C157.396 39.0208 158.281 39.1875 159.344 39.1875C160.427 39.1875 161.312 39.0208 162 38.6875C162.688 38.3542 163.188 37.7083 163.5 36.75C163.833 35.7708 164 34.3438 164 32.4688V1.5ZM200.031 34.9062C200.031 34.1979 199.958 33.5625 199.812 33C199.688 32.4167 199.427 31.875 199.031 31.375C198.656 30.875 198.083 30.375 197.312 29.875C196.542 29.3542 195.51 28.8125 194.219 28.25C192.594 27.5833 191 26.8333 189.438 26C187.875 25.1458 186.469 24.1562 185.219 23.0312C183.99 21.8854 183 20.5521 182.25 19.0312C181.5 17.4896 181.125 15.6979 181.125 13.6562C181.125 11.6979 181.5 9.9375 182.25 8.375C183.021 6.79167 184.073 5.44792 185.406 4.34375C186.76 3.21875 188.354 2.36458 190.188 1.78125C192.021 1.17708 194.021 0.875 196.188 0.875C199.062 0.875 201.594 1.45833 203.781 2.625C205.99 3.77083 207.708 5.40625 208.938 7.53125C210.188 9.63542 210.812 12.125 210.812 15H200.156C200.156 13.8542 200.01 12.8438 199.719 11.9688C199.427 11.0938 198.969 10.4062 198.344 9.90625C197.74 9.40625 196.938 9.15625 195.938 9.15625C195.042 9.15625 194.281 9.36458 193.656 9.78125C193.052 10.1979 192.594 10.7604 192.281 11.4688C191.969 12.1562 191.812 12.9167 191.812 13.75C191.812 14.4375 191.969 15.0625 192.281 15.625C192.594 16.1667 193.021 16.6771 193.562 17.1562C194.125 17.6354 194.771 18.0938 195.5 18.5312C196.25 18.9688 197.052 19.3958 197.906 19.8125C199.969 20.5833 201.792 21.4479 203.375 22.4062C204.979 23.3438 206.323 24.4167 207.406 25.625C208.49 26.8125 209.302 28.1667 209.844 29.6875C210.406 31.2083 210.688 32.9271 210.688 34.8438C210.688 36.8854 210.354 38.6979 209.688 40.2812C209.042 41.8646 208.094 43.2083 206.844 44.3125C205.594 45.3958 204.083 46.2188 202.312 46.7812C200.562 47.3438 198.583 47.625 196.375 47.625C194.354 47.625 192.365 47.3333 190.406 46.75C188.469 46.1458 186.708 45.2292 185.125 44C183.562 42.75 182.312 41.1562 181.375 39.2188C180.438 37.2604 179.969 34.9375 179.969 32.25H190.719C190.719 33.5833 190.823 34.7083 191.031 35.625C191.24 36.5417 191.562 37.2812 192 37.8438C192.458 38.3854 193.042 38.7812 193.75 39.0312C194.458 39.2604 195.333 39.375 196.375 39.375C197.333 39.375 198.073 39.1771 198.594 38.7812C199.135 38.3646 199.51 37.8229 199.719 37.1562C199.927 36.4688 200.031 35.7188 200.031 34.9062ZM235.281 34.9062C235.281 34.1979 235.208 33.5625 235.062 33C234.938 32.4167 234.677 31.875 234.281 31.375C233.906 30.875 233.333 30.375 232.562 29.875C231.792 29.3542 230.76 28.8125 229.469 28.25C227.844 27.5833 226.25 26.8333 224.688 26C223.125 25.1458 221.719 24.1562 220.469 23.0312C219.24 21.8854 218.25 20.5521 217.5 19.0312C216.75 17.4896 216.375 15.6979 216.375 13.6562C216.375 11.6979 216.75 9.9375 217.5 8.375C218.271 6.79167 219.323 5.44792 220.656 4.34375C222.01 3.21875 223.604 2.36458 225.438 1.78125C227.271 1.17708 229.271 0.875 231.438 0.875C234.312 0.875 236.844 1.45833 239.031 2.625C241.24 3.77083 242.958 5.40625 244.188 7.53125C245.438 9.63542 246.062 12.125 246.062 15H235.406C235.406 13.8542 235.26 12.8438 234.969 11.9688C234.677 11.0938 234.219 10.4062 233.594 9.90625C232.99 9.40625 232.188 9.15625 231.188 9.15625C230.292 9.15625 229.531 9.36458 228.906 9.78125C228.302 10.1979 227.844 10.7604 227.531 11.4688C227.219 12.1562 227.062 12.9167 227.062 13.75C227.062 14.4375 227.219 15.0625 227.531 15.625C227.844 16.1667 228.271 16.6771 228.812 17.1562C229.375 17.6354 230.021 18.0938 230.75 18.5312C231.5 18.9688 232.302 19.3958 233.156 19.8125C235.219 20.5833 237.042 21.4479 238.625 22.4062C240.229 23.3438 241.573 24.4167 242.656 25.625C243.74 26.8125 244.552 28.1667 245.094 29.6875C245.656 31.2083 245.938 32.9271 245.938 34.8438C245.938 36.8854 245.604 38.6979 244.938 40.2812C244.292 41.8646 243.344 43.2083 242.094 44.3125C240.844 45.3958 239.333 46.2188 237.562 46.7812C235.812 47.3438 233.833 47.625 231.625 47.625C229.604 47.625 227.615 47.3333 225.656 46.75C223.719 46.1458 221.958 45.2292 220.375 44C218.812 42.75 217.562 41.1562 216.625 39.2188C215.688 37.2604 215.219 34.9375 215.219 32.25H225.969C225.969 33.5833 226.073 34.7083 226.281 35.625C226.49 36.5417 226.812 37.2812 227.25 37.8438C227.708 38.3854 228.292 38.7812 229 39.0312C229.708 39.2604 230.583 39.375 231.625 39.375C232.583 39.375 233.323 39.1771 233.844 38.7812C234.385 38.3646 234.76 37.8229 234.969 37.1562C235.177 36.4688 235.281 35.7188 235.281 34.9062ZM262.625 1.5V47H251.969V1.5H262.625ZM287.125 11.0625L278.656 47H267.156L281.188 1.5H288.375L287.125 11.0625ZM293.75 47L285.281 11.0625L283.875 1.5H291.188L305.25 47H293.75ZM294.094 30.0312V38.5H274.375V30.0312H294.094Z" fill="white"/>
</g>
<defs>
<filter id="filter0_d_1108_1579" x="0.71875" y="0.875" width="308.531" height="54.75" filterUnits="userSpaceOnUse" color-interpolation-filters="sRGB">
<feFlood flood-opacity="0" result="BackgroundImageFix"/>
<feColorMatrix in="SourceAlpha" type="matrix" values="0 0 0 0 0 0 0 0 0 0 0 0 0 0 0 0 0 0 127 0" result="hardAlpha"/>
<feOffset dy="4"/>
<feGaussianBlur stdDeviation="2"/>
<feComposite in2="hardAlpha" operator="out"/>
<feColorMatrix type="matrix" values="0 0 0 0 0 0 0 0 0 0 0 0 0 0 0 0 0 0 0.25 0"/>
<feBlend mode="normal" in2="BackgroundImageFix" result="effect1_dropShadow_1108_1579"/>
<feBlend mode="normal" in="SourceGraphic" in2="effect1_dropShadow_1108_1579" result="shape"/>
</filter>
</defs>
</svg>
